<?xml version="1.0" encoding="utf-8"?>
<!-- Generator: Adobe Illustrator 15.0.0, SVG Export Plug-In . SVG Version: 6.00 Build 0)  -->
<!DOCTYPE svg PUBLIC "-//W3C//DTD SVG 1.1//EN" "http://www.w3.org/Graphics/SVG/1.1/DTD/svg11.dtd">
<svg version="1.1" id="Layer_1" xmlns="http://www.w3.org/2000/svg" xmlns:xlink="http://www.w3.org/1999/xlink" x="0px" y="0px"
	 width="387.087px" height="56.131px" viewBox="0 0 387.087 56.131" enable-background="new 0 0 387.087 56.131"
	 xml:space="preserve">
<g>
	<g>
		<path fill="#646565" d="M322.003,15.051c-7.732,0-14.783,6.199-14.783,6.199l-0.066-5.455l-7.357,1.88v37.703c0,0,3.084,0,5.518,0
			c2.438,0,2.502-0.918,2.502-2.5s0-26.325,0-26.325s7.119-4.781,13.365-4.781c3.809,0,6.199,1.121,6.199,1.121v-6.795
			C327.38,16.098,325.812,15.051,322.003,15.051z"/>
		<g>
			<path fill="#646565" d="M335.396,10.707c2.688,0,4.777-2.164,4.777-4.854c0-2.688-2.09-4.854-4.777-4.854
				c-2.691,0-4.785,2.165-4.785,4.854C330.61,8.543,332.704,10.707,335.396,10.707z"/>
			<path fill="#646565" d="M339.347,52.866c0-1.266,0-37.952,0-37.952l-7.467,1.436v39.028c0,0,2.16,0,4.816,0
				S339.347,54.136,339.347,52.866z"/>
		</g>
		<path fill="#646565" d="M117.593,50.077c-1.791,0-3.808,0-3.808-4.035V21.323h8.977l1.853-5.526h-10.829V3.849l-7.169,2.987
			l-0.299,8.961h-4.169c0,0,0,1.806,0,3.294c0,1.487,0.048,2.232,2.233,2.232c1.793,0,1.936,0,1.936,0v24.871
			c0,9.184,5.676,9.93,10.828,9.93c3.734,0,7.856-1.277,7.856-1.277v-5.68C125.002,49.167,120.058,50.077,117.593,50.077z"/>
		<path fill="#646565" d="M285.892,50.077c-1.791,0-3.809,0-3.809-4.035V21.323h8.979l1.852-5.526h-10.83V3.849l-7.168,2.987
			l-0.299,8.961h-4.17c0,0,0,1.806,0,3.294c0,1.487,0.049,2.232,2.234,2.232c1.793,0,1.936,0,1.936,0v24.871
			c0,9.184,5.676,9.93,10.83,9.93c3.73,0,7.855-1.277,7.855-1.277v-5.68C293.302,49.167,288.356,50.077,285.892,50.077z"/>
		<path fill="#646565" d="M225.759,55.378c2.18,0,2.289-0.717,2.289-2.289c0-1.57,0-26.013,0-26.013
			c0-8.963-4.814-12.025-11.461-12.025c-6.199,0-12.127,4.256-14.518,6.796c-1.568-4.929-5.637-6.796-10.789-6.796
			c-7.394,0-14.623,6.272-14.623,6.272l-0.062-5.526l-7.624,1.77v37.812c0,0,3.08,0,5.463,0c2.382,0,2.448-1.199,2.448-2.447
			s0-26.678,0-26.678s6.78-5.442,12.679-5.442c3.734,0,5.602,1.634,5.602,6.266v28.302c0,0,3.447,0,5.404,0s2.174-1.004,2.174-2.176
			c0-1.168,0-26.949,0-26.949s6.451-5.442,12.127-5.442c3.734,0,5.602,1.634,5.602,6.266v28.302
			C220.47,55.378,223.583,55.378,225.759,55.378z"/>
		<g>
			<polygon fill="#646565" points="375.817,15.717 365.321,28.675 354.825,15.717 345.544,15.717 360.681,34.405 343.774,55.272 
				353.056,55.272 385.099,15.717 			"/>
			<polygon fill="#646565" points="366.47,41.683 377.808,55.272 387.087,55.272 371.11,35.952 			"/>
		</g>
		<path fill="#C1D630" d="M24.519,31.233L13.769,3.632H0c0,0,0,47.984,0,49.371s0.019,2.418,2.416,2.418c2.398,0,4.958,0,4.958,0
			V9.26h0.155l18.055,46.161h8.23l0.035-0.094L24.519,31.233z"/>
		<path fill="#646565" d="M82.313,15.051c-7.542,0-17.325,4.109-17.325,20.612c0,18.744,11.574,20.461,19.043,20.461
			c6.05,0,11.809-2.463,11.809-2.463v-5.061c0,0-6.729,1.254-11.809,1.254c-6.722,0-11.201-2.543-11.649-11.801c0,0,0.009,0,0.022,0
			c-0.075-1.271-0.135-3.334-0.084-5.004h-0.014c0.449-10.456,5.228-12.473,10.007-12.473c4.48,0,8.888,1.27,8.888,12.473h-17.08
			c-0.052,1.67-0.157,3.732-0.083,5.004c4.57,0,19.91,0,22.021,0c2.474,0,2.5-1.176,2.528-2.529c0.051-2.459,0.009,0.01,0.009,0.01
			C99.096,18.702,89.773,15.051,82.313,15.051z"/>
		<path fill="#646565" d="M146.906,15.051c-8.143,0-12.653,1.327-12.653,1.327v6.049c0,0,5.333-1.326,11.606-1.326
			c5.153,0,8.215,1.193,8.215,6.348v4.1h-8.296c-8.409,0-18.37,2.139-17.315,13.068c0.953,9.875,11.67,11.645,15.567,11.508
			c4.265-0.146,6.71-0.754,8.211-1.375c0.146-0.066,0.188-0.117,0.184-0.273c-0.061-1.488-0.115-4.072-0.213-5.539
			c-1.46,0.771-3.654,1.586-6.757,1.586c-3.957,0-9.628-0.775-9.967-6.129c-0.438-6.918,5.137-7.996,11.933-8.07l5.828,0.045
			c0.369,0.057,0.813,0.234,0.825,0.764c0,0,0.048,5.945,0.048,10.668c0,4.721,0.25,7.469,0.25,7.469s2.25,0.109,4.705,0.109
			c2.454,0,2.465-0.766,2.465-2.254c0-1.313,0-24.48,0-24.48C161.542,18.263,155.567,15.051,146.906,15.051z"/>
		<path fill="#646565" d="M250.548,15.051c-8.141,0-12.652,1.327-12.652,1.327v6.049c0,0,5.332-1.326,11.605-1.326
			c5.152,0,8.215,1.193,8.215,6.348v4.1h-8.297c-8.408,0-18.371,2.139-17.316,13.068c0.953,9.875,11.672,11.645,15.568,11.508
			c4.268-0.146,6.709-0.754,8.213-1.375c0.145-0.066,0.188-0.117,0.184-0.273c-0.063-1.488-0.117-4.072-0.215-5.539
			c-1.461,0.771-3.654,1.586-6.756,1.586c-3.959,0-9.627-0.775-9.967-6.129c-0.438-6.918,5.137-7.996,11.934-8.07l5.828,0.045
			c0.367,0.057,0.813,0.234,0.824,0.764c0,0,0.047,5.945,0.047,10.668c0,4.721,0.25,7.469,0.25,7.469s2.25,0.109,4.705,0.109
			s2.467-0.766,2.467-2.254c0-1.313,0-24.48,0-24.48C265.185,18.263,259.208,15.051,250.548,15.051z"/>
	</g>
	<g>
		<polygon fill="#8DC63F" points="53.058,3.632 45.462,3.632 31.131,43.47 34.767,52.858 		"/>
		<path fill="#77A240" d="M54.723,3.632l-3.582,9.888v41.901c0,0,3.788,0,5.912,0s2.124-0.789,2.124-2.125s0-49.664,0-49.664H54.723
			z"/>
	</g>
</g>
</svg>
