<?xml version="1.0" encoding="utf-8"?>
<svg xmlns="http://www.w3.org/2000/svg" width="387.087" height="56.131" viewBox="0 0 387.087 56.131"><path fill="#646565" d="M322.003 15.05c-7.732 0-14.783 6.2-14.783 6.2l-.066-5.455-7.357 1.88v37.703h5.518c2.438 0 2.502-.918 2.502-2.5V26.553s7.12-4.78 13.365-4.78c3.81 0 6.2 1.12 6.2 1.12v-6.795c-.002 0-1.57-1.047-5.38-1.047z"/><g fill="#646565"><path d="M335.396 10.707c2.688 0 4.777-2.164 4.777-4.854 0-2.688-2.09-4.854-4.777-4.854-2.69 0-4.785 2.164-4.785 4.853 0 2.69 2.094 4.854 4.786 4.854zM339.347 52.866V14.914l-7.467 1.436v39.028h4.816s2.65-1.242 2.65-2.512z"/></g><path fill="#646565" d="M117.593 50.077c-1.79 0-3.808 0-3.808-4.035v-24.72h8.977l1.853-5.525h-10.83V3.85l-7.168 2.986-.3 8.96h-4.168v3.295c0 1.488.047 2.233 2.232 2.233h1.936v24.87c0 9.185 5.676 9.93 10.828 9.93 3.734 0 7.856-1.276 7.856-1.276v-5.68s-4.944.91-7.41.91zM285.892 50.077c-1.79 0-3.81 0-3.81-4.035v-24.72h8.98l1.852-5.525h-10.83V3.85l-7.168 2.986-.3 8.96h-4.17v3.295c0 1.488.05 2.233 2.235 2.233h1.937v24.87c0 9.185 5.676 9.93 10.83 9.93 3.73 0 7.855-1.276 7.855-1.276v-5.68s-4.946.91-7.41.91zM225.76 55.378c2.18 0 2.288-.717 2.288-2.29V27.077c0-8.963-4.814-12.025-11.46-12.025-6.2 0-12.128 4.257-14.52 6.797-1.567-4.93-5.636-6.796-10.788-6.796-7.394 0-14.623 6.273-14.623 6.273l-.062-5.526-7.624 1.77V55.38h5.464c2.382 0 2.448-1.2 2.448-2.448V26.254s6.78-5.442 12.68-5.442c3.733 0 5.6 1.634 5.6 6.266V55.38h5.405s2.174-1.004 2.174-2.176v-26.95s6.452-5.44 12.128-5.44c3.734 0 5.602 1.633 5.602 6.265v28.3c0-.002 3.113-.002 5.29-.002z"/><g fill="#646565"><path d="M375.817 15.717L365.32 28.675l-10.495-12.958h-9.28l15.136 18.688-16.906 20.867h9.282L385.1 15.717M366.47 41.683l11.338 13.59h9.28l-15.978-19.32"/></g><path fill="#C1D630" d="M24.52 31.233l-10.75-27.6H0v49.37s.02 2.418 2.416 2.418h4.958V9.26h.155l18.054 46.16h8.23l.035-.093-9.33-24.094z"/><path fill="#646565" d="M82.313 15.05c-7.542 0-17.325 4.11-17.325 20.613 0 18.744 11.574 20.46 19.043 20.46 6.05 0 11.81-2.462 11.81-2.462V48.6s-6.73 1.254-11.81 1.254c-6.72 0-11.2-2.543-11.648-11.8h.022c-.075-1.272-.135-3.335-.084-5.005h-.014c.45-10.457 5.228-12.474 10.007-12.474 4.48 0 8.888 1.27 8.888 12.473H74.12c-.05 1.67-.156 3.73-.082 5.003h22.02c2.475 0 2.5-1.176 2.53-2.53.05-2.458.008.01.008.01.5-16.83-8.823-20.482-16.283-20.482zM146.906 15.05c-8.143 0-12.653 1.328-12.653 1.328v6.05s5.333-1.327 11.606-1.327c5.152 0 8.214 1.194 8.214 6.35v4.1h-8.296c-8.41 0-18.37 2.138-17.315 13.067.953 9.875 11.67 11.645 15.567 11.508 4.265-.146 6.71-.754 8.21-1.375.147-.066.19-.117.185-.273-.06-1.488-.115-4.072-.213-5.54-1.46.772-3.654 1.587-6.757 1.587-3.957 0-9.628-.775-9.967-6.13-.438-6.917 5.137-7.995 11.933-8.07l5.83.046c.368.057.812.234.824.764 0 0 .048 5.945.048 10.668 0 4.72.25 7.47.25 7.47s2.25.108 4.705.108c2.454 0 2.465-.766 2.465-2.254v-24.48c0-10.383-5.975-13.595-14.636-13.595zM250.548 15.05c-8.14 0-12.652 1.328-12.652 1.328v6.05S243.228 21.1 249.5 21.1c5.153 0 8.216 1.194 8.216 6.35v4.1h-8.297c-8.41 0-18.372 2.138-17.317 13.067.953 9.875 11.672 11.645 15.568 11.508 4.27-.146 6.71-.754 8.214-1.375.145-.066.188-.117.184-.273-.063-1.488-.117-4.072-.215-5.54-1.46.772-3.654 1.587-6.756 1.587-3.96 0-9.627-.775-9.967-6.13-.438-6.917 5.137-7.995 11.934-8.07l5.828.046c.367.057.813.234.824.764 0 0 .047 5.945.047 10.668 0 4.72.25 7.47.25 7.47s2.25.108 4.705.108 2.467-.766 2.467-2.254v-24.48c0-10.383-5.977-13.595-14.637-13.595z"/><g><path fill="#8DC63F" d="M53.058 3.632h-7.596L31.132 43.47l3.635 9.388"/><path fill="#77A240" d="M54.723 3.632L51.14 13.52v41.9h5.913s2.124-.788 2.124-2.124V3.632h-4.454z"/></g></svg>