<svg xmlns="http://www.w3.org/2000/svg" style="display: none;">
  
    <symbol id="icon-facebook" viewBox="0 0 512 512">
      <path d="m292 159l74 0l-9 81l-65 0l0 235l-97 0l0-235l-49 0l0-81l49 0l0-49c0-35 8-61 24-79c17-18 44-26 81-26l65 0l0 81l-40 0c-8 0-14 0-18 2c-5 1-8 3-10 6c-2 4-3 7-4 10c0 3-1 8-1 14z"/>
    </symbol>
  
    <symbol id="icon-twitter" viewBox="0 0 512 512">
      <path d="m481 117c-13 18-28 34-46 47c0 3 0 7 0 12c0 25-3 50-11 74c-7 25-18 49-33 71c-14 23-32 43-52 61c-21 17-45 31-74 41c-29 11-60 16-92 16c-52 0-99-14-142-42c7 1 14 2 22 2c43 0 81-14 115-40c-20 0-38-6-54-18c-16-12-27-27-33-46c7 1 13 2 18 2c8 0 16-1 24-4c-21-4-39-15-53-31c-14-17-21-37-21-59l0-1c13 7 27 11 42 11c-13-8-23-19-30-32c-8-14-11-29-11-44c0-17 4-33 12-47c23 28 51 51 84 68c33 17 69 27 107 29c-2-8-3-15-3-22c0-25 9-47 27-65c18-18 40-27 66-27c26 0 49 10 67 29c21-4 40-11 59-22c-7 22-21 39-41 51c18-2 35-7 53-14z"/>
    </symbol>
  
    <symbol id="icon-linkedin" viewBox="0 0 512 512">
      <path d="m136 179l0 283l-94 0l0-283z m6-88c0 14-4 26-14 35c-10 9-23 14-39 14l0 0c-16 0-29-5-38-14c-10-9-14-21-14-35c0-14 4-26 14-35c10-9 23-14 39-14c16 0 28 5 38 14c9 9 14 21 14 35z m333 208l0 163l-94 0l0-152c0-20-3-35-11-47c-8-11-20-17-36-17c-12 0-22 4-30 10c-9 7-15 15-19 25c-2 5-3 13-3 23l0 158l-94 0c1-76 1-138 1-185c0-47 0-76 0-85l-1-13l94 0l0 41l0 0c4-6 7-12 11-16c4-5 10-10 17-15c6-5 15-10 24-13c10-3 21-4 33-4c33 0 59 11 79 32c20 22 29 54 29 95z"/>
    </symbol>
  
    <symbol id="icon-instagram" viewBox="0 0 512 512">
      <path d="m426 407l0-185l-39 0c4 12 6 25 6 38c0 24-6 46-18 66c-13 20-29 36-50 48c-21 12-44 18-69 18c-37 0-69-13-96-39c-27-26-40-57-40-93c0-13 2-26 6-38l-41 0l0 185c0 5 2 10 5 13c4 3 8 5 13 5l305 0c5 0 9-2 13-5c3-3 5-8 5-13z m-81-152c0-23-9-44-26-60c-18-17-38-25-63-25c-24 0-45 8-62 25c-17 16-26 37-26 60c0 24 9 44 26 61c17 16 38 25 62 25c25 0 45-9 63-25c17-17 26-37 26-61z m81-103l0-47c0-5-2-10-6-14c-4-4-8-6-14-6l-50 0c-5 0-10 2-14 6c-4 4-5 9-5 14l0 47c0 6 1 10 5 14c4 4 9 6 14 6l50 0c6 0 10-2 14-6c4-4 6-8 6-14z m49-59l0 326c0 16-5 29-16 40c-11 11-24 16-40 16l-326 0c-16 0-29-5-40-16c-11-11-16-24-16-40l0-326c0-16 5-29 16-40c11-11 24-16 40-16l326 0c16 0 29 5 40 16c11 11 16 24 16 40z"/>
    </symbol>
  
    <symbol id="icon-menu" viewBox="0 0 512 512">
      <path d="m475 384l0 37c0 5-1 9-5 12c-4 4-8 6-13 6l-402 0c-5 0-9-2-13-6c-4-3-5-7-5-12l0-37c0-5 1-9 5-13c4-3 8-5 13-5l402 0c5 0 9 2 13 5c4 4 5 8 5 13z m0-146l0 36c0 5-1 10-5 13c-4 4-8 6-13 6l-402 0c-5 0-9-2-13-6c-4-3-5-8-5-13l0-36c0-5 1-10 5-13c4-4 8-6 13-6l402 0c5 0 9 2 13 6c4 3 5 8 5 13z m0-147l0 37c0 5-1 9-5 13c-4 3-8 5-13 5l-402 0c-5 0-9-2-13-5c-4-4-5-8-5-13l0-37c0-5 1-9 5-12c4-4 8-6 13-6l402 0c5 0 9 2 13 6c4 3 5 7 5 12z"/>
    </symbol>
  
    <symbol id="icon-arrow-right" viewBox="0 0 512 512">
      <path d="m494 255c0 3-1 5-3 7l-110 101c-3 3-6 3-10 2c-3-2-5-5-5-8l0-64l-357 0c-3 0-5-1-6-3c-2-2-3-4-3-7l0-54c0-3 1-5 3-7c1-2 3-3 6-3l357 0l0-64c0-4 2-6 5-8c4-1 7-1 10 2l110 100c2 1 3 4 3 6z"/>
    </symbol>
  
    <symbol id="icon-user" viewBox="0 0 512 512">
      <path d="m392 370c70 24 105 45 105 62c0 0 0 54 0 54c0 0-241 0-241 0c0 0-241 0-241 0c0 0 0-54 0-54c0-17 35-38 105-62c32-12 54-24 65-36c12-12 18-28 18-48c0-8-4-16-12-25c-7-10-12-22-16-38c-1-4-2-7-5-9c-2-2-4-3-7-4c-2-1-4-4-7-9c-2-5-4-12-4-22c0-5 0-10 2-13c2-4 3-6 5-6c0 0 2-2 2-2c-3-17-5-32-6-45c-2-19 5-38 21-58c15-19 42-29 80-29c38 0 65 10 81 29c16 20 22 39 20 58c0 0-6 45-6 45c6 2 9 10 9 21c0 10-2 17-4 22c-3 5-5 8-7 9c-3 1-5 2-7 4c-3 2-4 5-5 9c-3 17-8 29-16 38c-8 9-12 17-12 25c0 20 6 36 18 48c12 12 34 24 65 36"/>
    </symbol>
  
    <symbol id="icon-plus" viewBox="0 0 512 512">
      <path d="m389 230c10 0 15 9 15 26c0 17-5 26-15 26c0 0-107 0-107 0c0 0 0 107 0 107c0 10-9 15-26 15c-17 0-26-5-26-15c0 0 0-107 0-107c0 0-107 0-107 0c-10 0-15-9-15-26c0-17 5-26 15-26c0 0 107 0 107 0c0 0 0-107 0-107c0-10 9-15 26-15c17 0 26 5 26 15c0 0 0 107 0 107c0 0 107 0 107 0"/>
    </symbol>
  
    <symbol id="icon-bubble" viewBox="0 0 512 512">
      <path d="m256 112c-95 0-176 51-176 112c0 4 4 8 8 8c4 0 8-4 8-8c0-51 75-96 160-96c4 0 8-4 8-8c0-4-4-8-8-8z m0-80c-141 0-256 86-256 192c0 66 44 124 112 159c0 0 0 1 0 1c0 29-21 60-31 76c0 0 0 0 0 0c-1 2-1 3-1 6c0 8 6 14 14 14c2 0 5 0 5 0c50-8 97-54 108-68c16 3 32 4 49 4c141 0 256-86 256-192c0-106-115-192-256-192z m0 352c-15 0-30-1-45-3c-1-1-3-1-4-1c-10 0-19 5-25 12c-7 8-26 27-49 41c6-15 11-31 11-47c0-1 0-2 0-3c0-12-7-23-17-29c-60-30-95-79-95-130c0-88 100-160 224-160c123 0 224 72 224 160c0 88-100 160-224 160z"/>
    </symbol>
  
    <symbol id="icon-down-open" viewBox="0 0 512 512">
      <path d="m396 219c0 0-120 115-120 115c-6 6-12 9-20 9c-8 0-14-3-20-9c0 0-120-115-120-115c-6-5-8-12-8-21c0-8 2-15 8-21c13-13 26-13 40 0c0 0 100 96 100 96c0 0 100-96 100-96c14-13 27-13 40 0c6 6 8 13 8 21c0 9-2 16-8 21"/>
    </symbol>
  
    <symbol id="icon-file" viewBox="0 0 512 512">
      <path d="m329 146l0-135c4 3 8 6 10 8l117 117c3 3 5 6 8 10z m-36 9c0 8 2 15 8 20 5 5 11 8 19 8l155 0 0 302c0 7-2 14-8 19-5 5-11 8-19 8l-384 0c-8 0-14-3-19-8-6-5-8-12-8-19l0-458c0-7 2-14 8-19 5-5 11-8 19-8l229 0z"/>
    </symbol>
  
    <symbol id="icon-movie-play-file-2" viewBox="0 0 512 512">
      <path d="m96 192l0 224c0 18 14 32 32 32l256 0c18 0 32-14 32-32l0-224c0-18-14-32-32-32l-256 0c-18 0-32 14-32 32z m96 32l149 80l-149 80z m183-224l-343 0l0 512l448 0l0-407z m9 55l41 41l-41 0z m64 425l-384 0l0-448l288 0l0 96l96 0z"/>
    </symbol>
  
    <symbol id="icon-music-file-1" viewBox="0 0 512 512">
      <path d="m333 0l-301 0l0 512l448 0l0-365z m83 448l-320 0l0-384l211 0l109 109z m-160-352l-32 6l0 225c-9-4-20-7-32-7c-35 0-64 22-64 48c0 26 29 48 64 48c12 0 23-3 32-7c19-8 32-23 32-41l0-179c64 0 96 67 96 99c0-128-64-163-96-163z"/>
    </symbol>
  
    <symbol id="icon-upload-file-2" viewBox="0 0 512 512">
      <path d="m128 256l-128 128l64 0l0 128l128 0l0-128l64 0z m224-256l-288 0l0 224l32 0l0-192l224 0l0 160l160 0l0 288l-224 0l0 32l256 0l0-352z m0 160l0-115l115 115z"/>
    </symbol>
  
    <symbol id="icon-zip-file" viewBox="0 0 512 512">
      <path d="m32 0l0 480l128 0l0 32l192 0l0-32l128 0l0-480z m192 288l32 0l0-32l-32 0l0-32l32 0l0-32l-32 0l0-32l32 0l0-32l-32 0l0-32l32 0l0-32l-32 0l0-32l32 0l0 32l32 0l0 32l-32 0l0 32l32 0l0 32l-32 0l0 32l32 0l0 32l-32 0l0 32l32 0l0 32l-32 0l0 32l-32 0z m-64 160l-96 0l0-416l128 0l0 288l-32 0z m160 32l-128 0l0-128l128 0z m128-32l-96 0l0-128l-32 0l0-288l128 0z m-224-32l64 0l0 32l-64 0z"/>
    </symbol>
  
    <symbol id="icon-search-plus" viewBox="0 0 512 512">
      <path d="m311 229l0 18c0 2-1 4-3 6-2 2-4 3-6 3l-64 0 0 64c0 2-1 5-3 6-2 2-4 3-6 3l-19 0c-2 0-4-1-6-3-2-1-3-4-3-6l0-64-64 0c-2 0-4-1-6-3-2-2-3-4-3-6l0-18c0-3 1-5 3-7 2-2 4-3 6-3l64 0 0-64c0-2 1-4 3-6 2-2 4-3 6-3l19 0c2 0 4 1 6 3 2 2 3 4 3 6l0 64 64 0c2 0 4 1 6 3 2 2 3 4 3 7z m36 9c0-36-12-66-37-91-25-25-55-37-91-37-35 0-65 12-90 37-25 25-38 55-38 91 0 35 13 65 38 90 25 25 55 38 90 38 36 0 66-13 91-38 25-25 37-55 37-90z m147 237c0 11-4 19-11 26-7 7-16 11-26 11-10 0-19-4-26-11l-98-98c-34 24-72 36-114 36-27 0-53-5-78-16-25-11-46-25-64-43-18-18-32-39-43-64-10-25-16-51-16-78 0-28 6-54 16-78 11-25 25-47 43-65 18-18 39-32 64-43 25-10 51-15 78-15 28 0 54 5 79 15 24 11 46 25 64 43 18 18 32 40 43 65 10 24 16 50 16 78 0 42-12 80-36 114l98 98c7 7 11 15 11 25z"/>
    </symbol>
  
    <symbol id="icon-search" viewBox="0 0 512 512">
      <path d="m347 238c0-36-12-66-37-91-25-25-55-37-91-37-35 0-65 12-90 37-25 25-38 55-38 91 0 35 13 65 38 90 25 25 55 38 90 38 36 0 66-13 91-38 25-25 37-55 37-90z m147 237c0 10-4 19-11 26-7 7-16 11-26 11-10 0-19-4-26-11l-98-98c-34 24-72 36-114 36-27 0-53-5-78-16-25-11-46-25-64-43-18-18-32-39-43-64-10-25-16-51-16-78 0-28 6-54 16-78 11-25 25-47 43-65 18-18 39-32 64-43 25-10 51-15 78-15 28 0 54 5 79 15 24 11 46 25 64 43 18 18 32 40 43 65 10 24 16 50 16 78 0 42-12 80-36 114l98 98c7 7 11 15 11 25z"/>
    </symbol>
  
    <symbol id="icon-times" viewBox="0 0 512 512">
      <path d="m426 378c0 7-3 14-8 19l-39 39c-5 5-12 8-20 8-7 0-14-3-19-8l-84-84-84 84c-5 5-12 8-19 8-8 0-15-3-20-8l-39-39c-5-5-8-12-8-19 0-8 3-14 8-20l84-84-84-84c-5-5-8-12-8-19 0-8 3-14 8-20l39-38c5-6 12-8 20-8 7 0 14 2 19 8l84 84 84-84c5-6 12-8 19-8 8 0 15 2 20 8l39 38c5 6 8 12 8 20 0 7-3 14-8 19l-84 84 84 84c5 6 8 12 8 20z"/>
    </symbol>
  
    <symbol id="icon-chevron-right" viewBox="0 0 512 512">
      <path d="m389 251l-212 212c-3 3-7 5-12 5-5 0-10-2-13-5l-48-48c-3-3-5-8-5-13 0-5 2-9 5-13l152-151-152-152c-3-4-5-8-5-13 0-5 2-9 5-13l48-47c3-4 8-6 13-6 5 0 9 2 12 6l212 212c4 3 6 8 6 13 0 5-2 9-6 13z"/>
    </symbol>

    <symbol id="icon-check" viewBox="0 0 512 512">
      <path d="m477 162c0 7-2 14-8 19l-206 207-39 39c-6 5-12 8-20 8-7 0-14-3-19-8l-142-142c-6-6-8-12-8-20 0-7 2-14 8-19l38-39c6-5 12-8 20-8 7 0 14 3 19 8l84 84 188-188c5-5 12-8 19-8 8 0 14 3 20 8l38 39c6 6 8 12 8 20z"/>
    </symbol>
  
    <symbol id="icon-minus" viewBox="0 0 512 512">
      <path d="m457 210l0 55c0 8-3 14-8 20-5 5-12 8-19 8l-348 0c-7 0-14-3-19-8-5-6-8-12-8-20l0-55c0-7 3-14 8-19 5-5 12-8 19-8l348 0c7 0 14 3 19 8 5 5 8 12 8 19z"/>
    </symbol>

    <symbol id="icon-home" viewBox="0 0 512 512">
      <path d="m421 283l0 138c0 5-2 9-6 12-3 4-8 6-13 6l-109 0 0-110-74 0 0 110-109 0c-5 0-10-2-13-6-4-3-6-7-6-12l0-138c0 0 0 0 0 0 0-1 0-1 0-1l164-136 165 136c0 0 0 1 0 1z m63-19l-17 21c-2 2-4 3-6 3l-1 0c-3 0-5-1-6-2l-198-165-198 165c-2 2-4 2-7 2-2 0-4-1-6-3l-17-21c-2-2-2-4-2-7 0-3 1-5 3-6l205-171c6-5 14-8 22-8 8 0 16 3 22 8l69 58 0-56c0-2 1-5 3-6 2-2 4-3 7-3l54 0c3 0 5 1 7 3 2 1 3 4 3 6l0 117 62 52c2 1 3 3 3 6 0 3 0 5-2 7z"/>
    </symbol>
  
</svg>
